<svg xmlns="http://www.w3.org/2000/svg" xmlns:xlink="http://www.w3.org/1999/xlink" width="196.526" height="130.069" viewBox="0 0 196.526 130.069"><defs><style>.a{fill:#fff;}.b{fill:url(#a);}</style><linearGradient id="a" x1="0.166" y1="0.635" x2="0.96" y2="-0.305" gradientUnits="objectBoundingBox"><stop offset="0" stop-color="#69c399"/><stop offset="1" stop-color="#305eac"/></linearGradient></defs><g transform="translate(-178.762 -137.351)"><g transform="translate(178.775 257.502)"><path class="a" d="M179.986,435.723v7.733h-1.193v-9.587h1.222l5.519,7.575v-7.575h1.193v9.587h-1.15Z" transform="translate(-178.793 -433.711)"/><path class="a" d="M222.626,441.329h-4.858l-.848,2.127H215.6l3.852-9.587h1.481l3.866,9.587h-1.322Zm-4.513-1.064h4.154l-2.07-5.333Z" transform="translate(-200.664 -433.711)"/><path class="a" d="M254.548,434.933h-3.033V433.87h7.273v1.063h-3.047v8.523h-1.193v-8.523Z" transform="translate(-222.009 -433.712)"/><path class="a" d="M287.505,433.869H288.7V439.7a2.72,2.72,0,1,0,5.433,0v-5.835h1.193v5.85a3.909,3.909,0,0,1-7.819.015Z" transform="translate(-243.396 -433.711)"/><path class="a" d="M329.575,439.647h-1.911v3.809H326.47v-9.587h3.852a2.792,2.792,0,0,1,3,2.889,2.649,2.649,0,0,1-2.487,2.788l2.587,3.91h-1.409Zm.6-4.714h-2.515V438.6h2.515a1.834,1.834,0,1,0,0-3.665Z" transform="translate(-266.552 -433.711)"/><path class="a" d="M366.761,441.329H361.9l-.848,2.127h-1.322l3.852-9.587h1.48l3.866,9.587h-1.322Zm-4.513-1.064H366.4l-2.07-5.333Z" transform="translate(-286.318 -433.711)"/><path class="a" d="M399.653,433.869h1.193v8.523H405.3v1.063h-5.649Z" transform="translate(-310.041 -433.711)"/><path class="a" d="M454.482,440.989a4.052,4.052,0,0,0,3.018,1.365c1.711,0,2.257-.92,2.257-1.653,0-1.15-1.164-1.466-2.429-1.811-1.538-.4-3.248-.833-3.248-2.716,0-1.581,1.409-2.659,3.291-2.659a4.508,4.508,0,0,1,3.407,1.337l-.719.877a3.67,3.67,0,0,0-2.774-1.15c-1.15,0-1.969.618-1.969,1.524,0,.963,1.106,1.25,2.328,1.581,1.567.417,3.349.906,3.349,2.918,0,1.394-.949,2.818-3.536,2.818a4.749,4.749,0,0,1-3.68-1.524Z" transform="translate(-342.206 -433.5)"/><path class="a" d="M494.353,441.329h-4.858l-.848,2.127h-1.322l3.852-9.587h1.481l3.866,9.587H495.2Zm-4.513-1.064h4.154l-2.07-5.333Z" transform="translate(-362.141 -433.711)"/><path class="a" d="M527.245,433.869h1.193v8.523h4.456v1.063h-5.649v-9.587Z" transform="translate(-385.864 -433.711)"/><path class="a" d="M567.673,435.479l-3.263,7.977h-.489l-3.248-7.977v7.977H559.48v-9.587h1.711l2.975,7.3,2.99-7.3h1.711v9.587h-1.193v-7.977Z" transform="translate(-405.02 -433.711)"/><path class="a" d="M606.107,433.48a4.963,4.963,0,1,1-4.758,4.959A4.682,4.682,0,0,1,606.107,433.48Zm0,1.063c-2.156,0-3.521,1.653-3.521,3.9s1.365,3.9,3.521,3.9,3.521-1.667,3.521-3.9S608.248,434.543,606.107,434.543Z" transform="translate(-429.901 -433.48)"/><path class="a" d="M644.766,435.723v7.733h-1.193v-9.587h1.222l5.519,7.575v-7.575h1.193v9.587h-1.15Z" transform="translate(-454.993 -433.711)"/></g><g transform="translate(178.762 218.609)"><path class="a" d="M194.912,360.481l-7.378-21.638h-8.772l11.292,30.006h9.717l11.336-30.006h-8.772Z" transform="translate(-178.762 -338.348)"/><rect class="a" width="7.738" height="30.006" transform="translate(43.546 0.495)"/><path class="a" d="M367.134,338.843H357.6l-9.222,12.326V338.843h-7.737v30.006h7.737v-8.773l2.025-2.519,7.873,11.292h9.492l-12.281-15.97Z" transform="translate(-274.958 -338.348)"/><rect class="a" width="7.737" height="30.006" transform="translate(104.097 0.495)"/><path class="a" d="M509.981,356.118l-12.147-17.275h-7.963v30.006h7.738v-18.13l12.686,18.13h7.468V338.843h-7.782Z" transform="translate(-363.642 -338.348)"/><path class="a" d="M605.35,351.073v6.433h6.883v2.519a9.341,9.341,0,0,1-5.668,1.8c-4.9,0-8.368-3.779-8.368-8.682s3.464-8.683,8.368-8.683a7.457,7.457,0,0,1,6.343,3.554l6.478-3.419c-2.2-3.734-6.253-6.973-12.821-6.973-8.952,0-16.24,5.983-16.24,15.52s7.288,15.52,16.24,15.52a17.334,17.334,0,0,0,13.271-5.848V351.073H605.35Z" transform="translate(-423.338 -337.622)"/></g><path class="b" d="M401.79,137.413c0-.021,0-.041,0-.062h-5.434c0,.021,0,.041,0,.062a67.729,67.729,0,0,1-15.786,43.528,44.779,44.779,0,0,1-6.137-2.248,61.79,61.79,0,0,0,15.813-41.28c0-.021,0-.041,0-.062h-5.434c0,.021,0,.041,0,.062a56.4,56.4,0,0,1-15.341,38.66,45.578,45.578,0,0,1-4.808-3.375A50.527,50.527,0,0,0,379,137.413c0-.021,0-.041,0-.062h-5.434c0,.021,0,.041,0,.062a45.1,45.1,0,0,1-12.93,31.636A45.1,45.1,0,0,1,347.7,137.413c0-.021,0-.041,0-.062H342.27c0,.021,0,.041,0,.062a50.773,50.773,0,0,0,34.268,47.955q-2.3,2.313-4.815,4.4a56.586,56.586,0,0,1-35.267-52.354c0-.021,0-.041,0-.062h-5.434c0,.021,0,.041,0,.062a62.011,62.011,0,0,0,35.736,56.111,68.047,68.047,0,0,1-6.114,3.749h0l-.009,0a68.1,68.1,0,0,1-35.723-59.864c0-.021,0-.041,0-.062h-5.434c0,.021,0,.041,0,.062a73.56,73.56,0,0,0,35.258,62.734h0c1.909,1.168,3.887,2.244,5.906,3.237q2.93-1.442,5.71-3.131h0l.216-.129,0,0A73.5,73.5,0,0,0,401.79,137.413Z" transform="translate(-83.622)"/></g></svg>